<svg xmlns="http://www.w3.org/2000/svg" fill="none" viewBox="0 0 32 32">
  <g clip-path="url(#a)">
    <path fill="currentColor" d="M10 16.575c0 .531-.213 1.038-.588 1.413l-1.675 1.675c-.768.768-2.03.712-3.087.45a3.551 3.551 0 0 0-.9-.113A3.753 3.753 0 0 0 0 23.75a3.753 3.753 0 0 0 3.75 3.75c.394 0 .75.356.75.75A3.753 3.753 0 0 0 8.25 32a3.753 3.753 0 0 0 3.637-4.656c-.262-1.056-.325-2.319.45-3.088l1.675-1.675a1.997 1.997 0 0 1 1.413-.587H21c.394 0 .775-.019 1.156-.063.744-.075 1.025-.969.675-1.625A6.962 6.962 0 0 1 22 16.994c0-3.869 3.131-7 7-7 .5 0 .981.05 1.45.15.731.156 1.506-.369 1.375-1.1C30.906 3.906 26.406 0 21 0c-6.075 0-11 4.925-11 11v5.575Z"/>
  </g>
  <defs>
    <clipPath id="a">
      <path fill="#fff" d="M0 0h32v32H0z"/>
    </clipPath>
  </defs>
</svg>
