<svg xmlns="http://www.w3.org/2000/svg" fill="none" viewBox="0 0 28 32">
  <g clip-path="url(#a)">
    <path fill="currentColor" d="M14 7c-.55 0-1-.45-1-1V5c0-2.763 2.238-5 5-5h1c.55 0 1 .45 1 1v1c0 2.763-2.238 5-5 5h-1ZM0 18C0 13.231 2.231 8 7 8c1.706 0 3.731.644 5.169 1.206a5.088 5.088 0 0 0 3.668 0C17.27 8.65 19.3 8 21.008 8c4.768 0 7 5.231 7 10 0 8-5 14-10 14-1.032 0-2.382-.413-3.22-.706a2.39 2.39 0 0 0-1.562 0c-.838.293-2.188.706-3.219.706C5 32 0 26 0 18Z"/>
  </g>
  <defs>
    <clipPath id="a">
      <path fill="#fff" d="M0 0h28v32H0z"/>
    </clipPath>
  </defs>
</svg>
