<svg xmlns="http://www.w3.org/2000/svg" fill="none" viewBox="0 0 40 32">
  <g clip-path="url(#a)">
    <path fill="currentColor" d="M25 6a3 3 0 1 0-.002-6.002A3 3 0 0 0 25 6Zm1.7 4-3.863-3.05a3.003 3.003 0 0 0-3.693-.019l-5.194 4.013c-1.919 1.487-1.781 4.425.269 5.725l3.781 2.4V26c0 1.106.894 2 2 2 1.106 0 2-.894 2-2v-8c0-.669-.331-1.294-.887-1.663l-2.675-1.78 3.768-3.032 2.544 2.037c.356.282.794.438 1.25.438h4c1.106 0 2-.894 2-2 0-1.106-.894-2-2-2h-3.3ZM12.5 24c0 2.488-2.012 4.5-4.5 4.5A4.497 4.497 0 0 1 3.5 24c0-2.488 2.013-4.5 4.5-4.5 2.488 0 4.5 2.012 4.5 4.5Zm3.5 0a8 8 0 0 0-8-8 8 8 0 0 0-8 8 8 8 0 0 0 8 8 8 8 0 0 0 8-8Zm20.5 0c0 2.488-2.013 4.5-4.5 4.5a4.497 4.497 0 0 1-4.5-4.5c0-2.488 2.012-4.5 4.5-4.5 2.487 0 4.5 2.012 4.5 4.5Zm3.5 0a8 8 0 0 0-8-8 8 8 0 0 0-8 8 8 8 0 0 0 8 8 8 8 0 0 0 8-8Z"/>
  </g>
  <defs>
    <clipPath id="a">
      <path fill="#fff" d="M0 0h40v32H0z"/>
    </clipPath>
  </defs>
</svg>
