<svg xmlns="http://www.w3.org/2000/svg" fill="none" viewBox="0 0 28 32">
  <g clip-path="url(#a)">
    <path fill="currentColor" d="M9.956.338a1.266 1.266 0 0 1 1.732.006 50.429 50.429 0 0 1 4.856 5.25c.687-.9 1.468-1.881 2.312-2.681a1.27 1.27 0 0 1 1.75.006c2.163 2.062 3.994 4.787 5.281 7.375C27.157 12.844 28 15.45 28 17.288 28 25.263 21.762 32 14 32 6.15 32 0 25.256 0 17.281c0-2.4 1.113-5.33 2.837-8.23C4.582 6.105 7.044 3.037 9.957.337ZM14.106 26c1.582 0 2.981-.437 4.3-1.312 2.632-1.838 3.338-5.513 1.757-8.4-.175-.35-.35-.7-.613-1.05l-3.163 3.675S11.3 12.438 10.944 12C8.319 15.238 7 17.075 7 19.175 7 23.463 10.162 26 14.106 26Z"/>
  </g>
  <defs>
    <clipPath id="a">
      <path fill="#fff" d="M0 0h28v32H0z"/>
    </clipPath>
  </defs>
</svg>
