<svg xmlns="http://www.w3.org/2000/svg" fill="none" viewBox="0 0 36 32">
  <path fill="currentColor" d="m19.344 11.15 8.65 7.419c-.1.056-.2.125-.3.187-1.125.775-2.506 1.269-3.7 1.269-1.225 0-2.55-.481-3.7-1.269a4.014 4.014 0 0 0-4.607 0c-1.068.738-2.374 1.269-3.7 1.269-.63 0-1.318-.137-1.993-.387C10.194 12.075 16.387 6 24 6h4c1.106 0 2 .894 2 2 0 1.106-.894 2-2 2h-4a9.895 9.895 0 0 0-4.656 1.15ZM2 10c0-2.206 1.794-4 4-4s4 1.794 4 4-1.794 4-4 4-4-1.794-4-4Zm17.156 10.369C20.563 21.337 22.281 22 24 22c1.681 0 3.462-.675 4.837-1.631a1.991 1.991 0 0 1 2.45.106 7.893 7.893 0 0 0 3.163 1.575 2 2 0 0 1-.906 3.894c-1.531-.357-2.806-1.031-3.638-1.563C28.094 25.356 26.063 26 24 26c-1.994 0-3.788-.619-5.025-1.181a20.588 20.588 0 0 1-.975-.482c-.281.15-.606.32-.975.482C15.788 25.38 13.994 26 12 26c-2.062 0-4.094-.644-5.906-1.613-.838.526-2.106 1.207-3.638 1.563a2 2 0 0 1-.906-3.894 7.894 7.894 0 0 0 3.163-1.575 2.009 2.009 0 0 1 2.45-.106C8.543 21.325 10.319 22 12 22c1.719 0 3.438-.663 4.844-1.631a1.99 1.99 0 0 1 2.312 0Z"/>
</svg>
