<svg xmlns="http://www.w3.org/2000/svg" fill="none" viewBox="0 0 28 32">
  <g clip-path="url(#a)">
    <path fill="currentColor" d="M21 3a3 3 0 1 0-6.002.002A3 3 0 0 0 21 3ZM8.856 10.969a3.316 3.316 0 0 1 2.694-.95L9.6 15.875a4.003 4.003 0 0 0 1.675 4.656l5.388 3.369-1.588 5.55a2.002 2.002 0 1 0 3.85 1.1l1.794-6.275a3 3 0 0 0-1.294-3.369l-3.55-2.218 1.931-5.15.319.768A6.01 6.01 0 0 0 23.669 18H25c1.106 0 2-.894 2-2 0-1.106-.894-2-2-2h-1.331a1.996 1.996 0 0 1-1.844-1.231l-.394-.938A7.994 7.994 0 0 0 16.4 7.263l-3.044-.938a7.293 7.293 0 0 0-7.319 1.819l-1.45 1.444a2.003 2.003 0 0 0 2.832 2.83l1.444-1.443-.007-.006ZM6.7 22H3c-1.106 0-2 .894-2 2 0 1.106.894 2 2 2h4.35c1.188 0 2.263-.7 2.744-1.781l.719-1.619-.594-.375a5.962 5.962 0 0 1-2.369-2.806L6.7 22Z"/>
  </g>
  <defs>
    <clipPath id="a">
      <path fill="#fff" d="M0 0h28v32H0z"/>
    </clipPath>
  </defs>
</svg>
